{"title":"Jurassic Park(1993)MP-4[DaScubaDude]","uid":12350621,"size":1548281520,"categoryP":"video","categoryS":"movies","magnet":"?xt=urn:btih:681c488737e2783e6b7300f5cfaaf5fc876355ec&amp;dn=Jurassic+Park%281993%29MP-4%5BDaScubaDude%5D&amp;tr=udp%3A%2F%2Ftracker.openbittorrent.com%3A80&amp;tr=udp%3A%2F%2Fopen.demonii.com%3A1337&amp;tr=udp%3A%2F%2Ftracker.coppersurfer.tk%3A6969&amp;tr=udp%3A%2F%2Fexodus.desync.com%3A6969","seeders":4,"leechers":0,"uploader":"dascuba","files":1,"time":1441415472,"description":"Jurassic Park (1993)\nPG-13  |  127 min  |  Adventure, Sci-Fi, Thriller  |  11 June 1993 (USA)\n8.1 Your rating:   -/10   Ratings: 8.1/10 from 529,186 users   Metascore: 68/100 \nReviews: 860 user | 300 critic | 20 from Metacritic.com\nDuring a preview tour, a theme park suffers a major power breakdown that allows its cloned dinosaur exhibits to run amok.\n\nDirector: Steven Spielberg\nWriters: Michael Crichton (novel), Michael Crichton (screenplay), 1 more credit Â»\nStars: Sam Neill, Laura Dern, Jeff Goldblum \n\nGeneral\nComplete name   : C:Jurassic ParKSpecial EditionJURASSIC_PARK_TRILOGY_Title5.mp4\nFormat                                   : MPEG-4\nFormat profile                           : Base Media\nCodec ID                                 : isom\nFile size                                : 1.44 GiB\nDuration                                 : 2h 6mn\nOverall bit rate mode                    : Constant\nOverall bit rate                         : 1 632 Kbps\nMovie name                               : JURASSIC_PARK_TRILOGY\nGenre                                    : Science_Fiction\nWriting application                      : Lavf54.6.100\n\nVideo\nID                                       : 1\nFormat                                   : MPEG-4 Visual\nFormat settings, BVOP                    : No\nFormat settings, QPel                    : No\nFormat settings, GMC                     : No warppoints\nFormat settings, Matrix                  : Default (H.263)\nCodec ID                                 : 20\nDuration                                 : 2h 6mn\nBit rate mode                            : Constant\nBit rate                                 : 1 498 Kbps\nWidth                                    : 720 pixels\nHeight                                   : 404 pixels\nDisplay aspect ratio                     : 16:9\nFrame rate mode                          : Constant\nFrame rate                               : 29.970 fps\nColor space                              : YUV\nChroma subsampling                       : 4:2:0\nBit depth                                : 8 bits\nScan type                                : Progressive\nCompression mode                         : Lossy\nBits/(Pixel*Frame)                       : 0.172\nStream size                              : 1.32 GiB (92%)\nWriting library                          : Lavc54.23.100\n\nAudio\nID                                       : 2\nFormat                                   : MPEG Audio\nFormat version                           : Version 1\nFormat profile                           : Layer 3\nCodec ID                                 : 6B\nDuration                                 : 2h 6mn\nBit rate mode                            : Constant\nBit rate                                 : 128 Kbps\nChannel(s)                               : 2 channels\nSampling rate                            : 44.1 KHz\nCompression mode                         : Lossy\nStream size                              : 116 MiB (8%)\nWriting library                          : LAME3.99.5","torrent":{"xt":"urn:btih:681c488737e2783e6b7300f5cfaaf5fc876355ec","amp;dn":"Jurassic+Park%281993%29MP-4%5BDaScubaDude%5D","amp;tr":["udp%3A%2F%2Ftracker.openbittorrent.com%3A80","udp%3A%2F%2Fopen.demonii.com%3A1337","udp%3A%2F%2Ftracker.coppersurfer.tk%3A6969","udp%3A%2F%2Fexodus.desync.com%3A6969"],"infoHash":"681c488737e2783e6b7300f5cfaaf5fc876355ec","infoHashBuffer":{"type":"Buffer","data":[104,28,72,135,55,226,120,62,107,115,0,245,207,170,245,252,135,99,85,236]},"announce":[],"urlList":[]}}